<?xml version="1.0" encoding="UTF-8" standalone="no"?>
<!-- Created with Inkscape (http://www.inkscape.org/) -->

<svg
   width="48"
   height="48"
   viewBox="0 0 48 48"
   version="1.1"
   id="svg1"
   xml:space="preserve"
   inkscape:export-filename="favicon.png"
   inkscape:export-xdpi="96"
   inkscape:export-ydpi="96"
   inkscape:version="1.3.2 (091e20ef0f, 2023-11-25)"
   sodipodi:docname="FaviconSource.svg"
   xmlns:inkscape="http://www.inkscape.org/namespaces/inkscape"
   xmlns:sodipodi="http://sodipodi.sourceforge.net/DTD/sodipodi-0.dtd"
   xmlns="http://www.w3.org/2000/svg"
   xmlns:svg="http://www.w3.org/2000/svg"><sodipodi:namedview
     id="namedview1"
     pagecolor="#ffffff"
     bordercolor="#000000"
     borderopacity="0.25"
     inkscape:showpageshadow="2"
     inkscape:pageopacity="0.0"
     inkscape:pagecheckerboard="0"
     inkscape:deskcolor="#d1d1d1"
     inkscape:document-units="px"
     inkscape:zoom="5.8778251"
     inkscape:cx="20.160518"
     inkscape:cy="22.967679"
     inkscape:window-width="1920"
     inkscape:window-height="1043"
     inkscape:window-x="0"
     inkscape:window-y="0"
     inkscape:window-maximized="1"
     inkscape:current-layer="layer1" /><defs
     id="defs1" /><g
     inkscape:label="Layer 1"
     inkscape:groupmode="layer"
     id="layer1"><rect
       style="fill:#35495e;fill-opacity:1"
       id="rect1"
       width="48"
       height="48"
       x="0"
       y="0"
       ry="9.6476212" /><path
       style="fill:#41b883;fill-opacity:1"
       d="m 25.362506,41.875245 c -1.259696,-1.770453 -2.130195,-3.379168 -1.934442,-3.574921 0.195753,-0.195753 1.799062,0.120368 3.56291,0.70249 2.824956,0.932319 3.363806,0.863948 4.523326,-0.573934 0.723982,-0.897786 2.081603,-3.265083 3.016935,-5.26066 0.935332,-1.995577 2.154111,-6.677495 2.708399,-10.404263 0.554288,-3.726769 0.807988,-6.975751 0.563777,-7.219961 -0.24421,-0.244211 -3.055803,0.21204 -6.247984,1.01389 l -5.803966,1.45791 -2.689651,6.460832 c -1.479308,3.553457 -2.689651,6.8328 -2.689651,7.287428 0,0.454628 -1.556744,1.8568 -3.45943,3.115938 -1.902687,1.259139 -5.774744,3.743103 -8.604571,5.519921 L 3.1630167,43.630493 9.9774,36.683437 c 5.45988,-5.566181 7.167302,-7.974694 8.589881,-12.117007 l 1.775497,-5.169951 -3.136801,0.588467 c -1.72524,0.323657 -3.670044,0.793092 -4.321785,1.043188 -0.693703,0.266199 -2.121559,-0.923574 -3.444033,-2.869769 -1.242477,-1.82847 -2.1096656,-3.473875 -1.9270848,-3.656456 0.1825808,-0.182581 1.8598818,0.116259 3.7273348,0.664088 2.167165,0.635752 4.66943,0.723994 6.91751,0.243944 2.694308,-0.575335 3.718927,-1.311669 4.3594,-3.132846 0.626019,-1.780074 0.455626,-3.1810342 -0.675351,-5.5527192 L 20.329355,3.5523944 23.218947,4.166695 c 1.589276,0.3378653 3.612489,1.2526136 4.496029,2.0327741 1.207785,1.0664671 1.47081,2.141422 1.059907,4.3317259 l -0.54653,2.913252 3.793954,-0.555822 c 2.086675,-0.305702 5.371722,-0.886882 7.300105,-1.29151 1.928383,-0.404629 3.584019,-0.65782 3.679192,-0.562648 0.09517,0.09517 -0.557554,4.240659 -1.450503,9.212192 -0.892949,4.971533 -2.061821,10.367144 -2.597494,11.990247 -0.535672,1.623103 -1.935662,4.254625 -3.111088,5.847825 -1.175426,1.593201 -3.498955,3.822107 -5.163397,4.953125 l -3.026259,2.056396 z"
       id="path1" /></g></svg>
